<svg width="120" height="110" viewBox="0 0 120 110" fill="none" xmlns="http://www.w3.org/2000/svg">
<path d="M68.4702 83.5H73.9763C73.7042 89.2255 71.1034 94.6823 66.6358 98.7776C61.9059 103.113 55.4734 105.562 48.75 105.562C42.0266 105.562 35.5941 103.113 30.8642 98.7776C26.3966 94.6823 23.7958 89.2255 23.5237 83.5H29.0298C29.2976 87.9861 31.3598 92.2223 34.816 95.3906C38.5252 98.7906 43.5387 100.688 48.75 100.688C53.9613 100.688 58.9748 98.7906 62.684 95.3906C66.1402 92.2223 68.2024 87.9861 68.4702 83.5Z" fill="url(#paint0_linear_32_618)" stroke="black" stroke-width="2"/>
<path d="M78.7499 3.43752H59.9999C54.3191 3.43108 48.8358 5.3481 44.6024 8.82064M78.7499 3.43752L78.7489 4.43752C78.749 4.43752 78.7492 4.43752 78.7493 4.43752M78.7499 3.43752V4.43752H78.7493M78.7499 3.43752C85.7094 3.44479 92.3816 5.98228 97.3027 10.4933C102.224 15.0043 104.992 21.1205 105 27.5L15.2238 34.6944M78.7493 4.43752H59.9999H59.9988C54.5418 4.43134 49.2869 6.27294 45.2403 9.59078L45.244 9.58773L44.6024 8.82064M78.7493 4.43752C85.4705 4.44465 91.8986 6.89608 96.627 11.2305C101.353 15.5623 103.992 21.4159 104 27.5013V48.1239C103.997 50.5639 102.939 52.9227 101.026 54.6769C99.1101 56.4329 96.4958 57.4342 93.7524 57.4375C91.9749 57.4268 90.2355 56.9903 88.7075 56.1765L87.9182 55.7561L87.4126 56.4937C86.5025 57.8214 85.2336 58.9254 83.7174 59.695C82.202 60.4643 80.4935 60.8718 78.752 60.875C76.9746 60.8642 75.2354 60.4277 73.7075 59.614L72.9095 59.1889L72.4065 59.9402C71.2041 61.736 69.3459 63.1107 67.1352 63.8094C64.924 64.5082 62.5141 64.4812 60.3228 63.7336L58.9999 63.2822V64.68V82.5C58.9999 84.9404 57.9431 87.3004 56.0291 89.0549C54.1122 90.8121 51.4951 91.8125 48.7499 91.8125C46.0047 91.8125 43.3876 90.8121 41.4707 89.0549C39.5567 87.3004 38.4999 84.9404 38.4999 82.5V44.3266V42.5185L36.9684 43.4795L29.2326 48.3339L29.2131 48.316L28.5609 48.75C26.471 50.1408 23.873 50.7648 21.288 50.483C18.7032 50.2012 16.3473 49.0377 14.6826 47.2482C13.0203 45.4613 12.168 43.1828 12.2696 40.8692C12.371 38.5618 13.4154 36.3556 15.2238 34.6944M44.6024 8.82064L45.2366 9.5938M44.6024 8.82064L14.5649 33.9419C12.5609 35.7746 11.3845 38.2326 11.2706 40.8253C11.1567 43.4181 12.1136 45.9549 13.9504 47.9293C15.7872 49.9038 18.3687 51.1707 21.1796 51.4771C23.9906 51.7835 26.8242 51.107 29.1149 49.5825L45.2366 9.5938M45.2366 9.5938L15.2238 34.6944M45.2366 9.5938L15.2238 34.6944M19.183 38.0799L19.2035 38.0628L49.016 13.1375L49.0264 13.1288L49.0265 13.1288C52.0631 10.6596 55.9687 9.30788 60.0007 9.31252H59.9999V10.3125L60.0011 9.31252L19.183 38.0799ZM19.183 38.0799L19.1635 38.0981C18.3164 38.8868 17.8083 39.9571 17.7695 41.101C17.7308 42.2454 18.1657 43.3458 18.9611 44.1846C19.7539 45.0209 20.8456 45.5373 22.0104 45.6539C23.1687 45.7698 24.3403 45.485 25.296 44.8414L43.9999 33.1032M19.183 38.0799L43.9999 33.1032M43.9999 33.1032V82.5C43.9999 83.7064 44.5235 84.8437 45.4225 85.6678C46.3187 86.4893 47.5169 86.9375 48.7499 86.9375C49.983 86.9375 51.1812 86.4893 52.0773 85.6678C52.9763 84.8437 53.4999 83.7064 53.4999 82.5V45.6875H58.9999V55C58.9999 56.2064 59.5235 57.3437 60.4225 58.1679C61.3187 58.9893 62.5169 59.4375 63.7499 59.4375C64.983 59.4375 66.1812 58.9893 67.0773 58.1679C67.9763 57.3437 68.4999 56.2064 68.4999 55V45.6875H73.9999V51.5625C73.9999 52.7689 74.5235 53.9062 75.4225 54.7304C76.3187 55.5518 77.5169 56 78.7499 56C79.983 56 81.1812 55.5518 82.0773 54.7304C82.9763 53.9062 83.4999 52.7689 83.4999 51.5625V45.6875H88.9999L43.9999 33.1032Z" fill="url(#paint1_linear_32_618)" stroke="black" stroke-width="2"/>
<defs>
<linearGradient id="paint0_linear_32_618" x1="48.75" y1="82.5" x2="48.75" y2="106.562" gradientUnits="userSpaceOnUse">
<stop stop-color="#6C2DF3"/>
<stop offset="0.984375" stop-color="#DA9A3B"/>
</linearGradient>
<linearGradient id="paint1_linear_32_618" x1="58.1307" y1="3.4375" x2="58.1307" y2="92.8125" gradientUnits="userSpaceOnUse">
<stop stop-color="#6C2DF3"/>
<stop offset="0.984375" stop-color="#DA9A3B"/>
</linearGradient>
</defs>
</svg>
