<svg width="130" height="130" viewBox="0 0 130 130" fill="none" xmlns="http://www.w3.org/2000/svg">
<path d="M65 22.3438C55.7599 22.3438 46.7273 25.0838 39.0445 30.2173C31.3616 35.3508 25.3736 42.6473 21.8375 51.184C18.3015 59.7207 17.3763 69.1143 19.179 78.1769C20.9816 87.2394 25.4311 95.5639 31.9649 102.098C38.4986 108.631 46.8231 113.081 55.8856 114.884C64.9482 116.686 74.3418 115.761 82.8785 112.225C91.4152 108.689 98.7117 102.701 103.845 95.018C108.979 87.3352 111.719 78.3026 111.719 69.0625C111.705 56.676 106.779 44.8008 98.0203 36.0422C89.2618 27.2836 77.3865 22.3572 65 22.3438ZM65 111.719C56.5634 111.719 48.3163 109.217 41.3015 104.53C34.2867 99.8427 28.8193 93.1807 25.5908 85.3863C22.3622 77.5919 21.5175 69.0152 23.1634 60.7407C24.8093 52.4662 28.8719 44.8656 34.8375 38.9C40.8031 32.9344 48.4037 28.8718 56.6782 27.2259C64.9527 25.58 73.5294 26.4247 81.3239 29.6533C89.1183 32.8818 95.7803 38.3492 100.467 45.364C105.155 52.3787 107.656 60.6259 107.656 69.0625C107.644 80.3719 103.146 91.2147 95.1492 99.2117C87.1522 107.209 76.3094 111.707 65 111.719ZM86.7496 47.3129C86.9385 47.5015 87.0883 47.7256 87.1905 47.9722C87.2928 48.2187 87.3454 48.4831 87.3454 48.75C87.3454 49.0169 87.2928 49.2813 87.1905 49.5278C87.0883 49.7744 86.9385 49.9985 86.7496 50.1871L66.4371 70.4996C66.2484 70.6883 66.0244 70.838 65.7778 70.9402C65.5312 71.0423 65.2669 71.0949 65 71.0949C64.7331 71.0949 64.4688 71.0423 64.2223 70.9402C63.9757 70.838 63.7516 70.6883 63.5629 70.4996C63.3742 70.3109 63.2245 70.0868 63.1223 69.8403C63.0202 69.5937 62.9676 69.3294 62.9676 69.0625C62.9676 68.7956 63.0202 68.5313 63.1223 68.2847C63.2245 68.0382 63.3742 67.8141 63.5629 67.6254L83.8754 47.3129C84.0641 47.124 84.2881 46.9742 84.5347 46.872C84.7813 46.7698 85.0456 46.7172 85.3125 46.7172C85.5795 46.7172 85.8438 46.7698 86.0904 46.872C86.337 46.9742 86.561 47.124 86.7496 47.3129ZM50.7813 8.125C50.7813 7.58628 50.9953 7.06962 51.3762 6.68869C51.7571 6.30776 52.2738 6.09375 52.8125 6.09375H77.1875C77.7262 6.09375 78.2429 6.30776 78.6238 6.68869C79.0048 7.06962 79.2188 7.58628 79.2188 8.125C79.2188 8.66372 79.0048 9.18038 78.6238 9.56131C78.2429 9.94224 77.7262 10.1562 77.1875 10.1562H52.8125C52.2738 10.1562 51.7571 9.94224 51.3762 9.56131C50.9953 9.18038 50.7813 8.66372 50.7813 8.125Z" fill="url(#paint0_linear_32_623)"/>
<defs>
<linearGradient id="paint0_linear_32_623" x1="65" y1="6.09375" x2="65" y2="115.781" gradientUnits="userSpaceOnUse">
<stop stop-color="#6C2DF3"/>
<stop offset="0.984375" stop-color="#DA9A3B"/>
</linearGradient>
</defs>
</svg>
