<svg width="111" height="119" viewBox="0 0 111 119" fill="none" xmlns="http://www.w3.org/2000/svg">
<path d="M89.1689 90.25C88.935 96.5456 86.4995 102.52 82.3444 106.975C77.9721 111.662 72.0575 114.281 65.9062 114.281C59.755 114.281 53.8404 111.662 49.4681 106.975C45.313 102.52 42.8775 96.5456 42.6436 90.25H47.5864C47.8165 95.0624 49.7011 99.6385 52.9111 103.08C56.345 106.761 61.0178 108.844 65.9062 108.844C70.7947 108.844 75.4675 106.761 78.9014 103.08C82.1114 99.6385 83.996 95.0624 84.2261 90.25H89.1689Z" fill="url(#paint0_linear_32_618)" stroke="#040210" stroke-width="2"/>
<path d="M24.2811 63.2187C26.0732 63.2118 27.832 62.6988 29.3802 61.7312C30.3154 63.3214 31.6102 64.6325 33.1445 65.5427C34.6788 66.4529 36.4027 66.9327 38.1562 66.9375C39.9482 66.9306 41.707 66.4175 43.2552 65.45C44.5172 67.5789 46.4149 69.1864 48.6387 70.0104C50.8625 70.8343 53.2811 70.826 55.4999 69.9869V89.25C55.4999 92.2088 56.5963 95.0465 58.5478 97.1387C60.4994 99.2309 63.1463 100.406 65.9062 100.406C68.6661 100.406 71.313 99.2309 73.2645 97.1387C75.2161 95.0465 76.3124 92.2088 76.3124 89.25V47.9719L84.0477 53.6244C85.821 55.0401 87.9765 55.7974 90.1874 55.7812C92.2514 55.7867 94.2703 55.134 95.9874 53.9062C97.7045 52.6784 99.0422 50.9309 99.8305 48.8859C100.619 46.8409 100.822 44.5908 100.414 42.4216C100.007 40.2525 99.0066 38.2623 97.5412 36.7041L69.7912 9.55718C65.8625 5.7874 60.7724 3.70795 55.4999 3.71874H38.1562C31.7164 3.71874 25.5403 6.46132 20.9867 11.3431C16.4331 16.2249 13.8749 22.8461 13.8749 29.75V52.0625C13.8749 55.0213 14.9713 57.859 16.9228 59.9512C18.8744 62.0434 21.5212 63.2187 24.2811 63.2187ZM20.8124 29.75C20.8124 24.8186 22.6397 20.0892 25.8923 16.6022C29.1449 13.1152 33.5563 11.1562 38.1562 11.1562H55.4999C59.0061 11.1108 62.4084 12.4323 65.0737 14.875L92.6503 42.0219C93.2911 42.7145 93.6524 43.6494 93.6562 44.625C93.6562 45.3156 93.4768 45.9926 93.1381 46.5801C92.7995 47.1675 92.3149 47.6423 91.7387 47.9511C91.1625 48.26 90.5175 48.3907 89.8759 48.3287C89.2343 48.2667 88.6215 48.0144 88.1062 47.6L69.3749 33.8406V89.25C69.3749 90.2363 69.0095 91.1822 68.359 91.8796C67.7084 92.577 66.8261 92.9687 65.9062 92.9687C64.9862 92.9687 64.1039 92.577 63.4534 91.8796C62.8029 91.1822 62.4374 90.2363 62.4374 89.25V48.3437H55.4999V59.5C55.4999 60.4863 55.1345 61.4321 54.4839 62.1296C53.8334 62.827 52.9511 63.2187 52.0312 63.2187C51.1112 63.2187 50.2289 62.827 49.5784 62.1296C48.9279 61.4321 48.5624 60.4863 48.5624 59.5V48.3437H41.6249V55.7812C41.6249 56.7675 41.2595 57.7134 40.6089 58.4108C39.9584 59.1082 39.0761 59.5 38.1562 59.5C37.2362 59.5 36.3539 59.1082 35.7034 58.4108C35.0529 57.7134 34.6874 56.7675 34.6874 55.7812V48.3437H27.7499V52.0625C27.7499 53.0488 27.3844 53.9947 26.7339 54.6921C26.0834 55.3895 25.2011 55.7812 24.2811 55.7812C23.3612 55.7812 22.4789 55.3895 21.8284 54.6921C21.1778 53.9947 20.8124 53.0488 20.8124 52.0625V29.75Z" fill="url(#paint1_linear_32_618)" stroke="#040210" stroke-width="4"/>
<defs>
<linearGradient id="paint0_linear_32_618" x1="65.9062" y1="115.281" x2="65.9062" y2="89.25" gradientUnits="userSpaceOnUse">
<stop stop-color="#6C2DF3"/>
<stop offset="0.984375" stop-color="#DA9A3B"/>
</linearGradient>
<linearGradient id="paint1_linear_32_618" x1="57.2471" y1="100.406" x2="57.2471" y2="3.7187" gradientUnits="userSpaceOnUse">
<stop stop-color="#6C2DF3"/>
<stop offset="0.984375" stop-color="#DA9A3B"/>
</linearGradient>
</defs>
</svg>
