<svg width="141" height="139" viewBox="0 0 141 139" fill="none" xmlns="http://www.w3.org/2000/svg">
<path d="M51.5238 99.0955C48.9102 102.88 46.1063 106.533 43.1225 110.042C21.4438 109.434 13.2188 95.5625 13.2188 95.5625C13.5269 75.9088 18.3581 56.5806 27.3481 39.0359C35.2505 32.9414 44.8795 29.4197 54.9019 28.9584L57.8394 35.6478" stroke="url(#paint0_linear_20_591)" stroke-width="3" stroke-linecap="round" stroke-linejoin="round"/>
<path d="M35.8376 41.6131C43.4607 38.334 51.5414 36.2058 59.8076 35.3002C63.3517 34.8413 66.9268 34.6573 70.5001 34.7499C74.0749 34.6765 77.6501 34.8799 81.1926 35.3581C89.4589 36.2638 97.5395 38.3919 105.163 41.671M83.2195 35.6187L86.157 28.9293C96.1892 29.4156 105.819 32.9681 113.711 39.0937C122.672 56.6257 127.483 75.9328 127.781 95.5624C127.781 95.5624 119.556 109.433 97.8776 110.042C94.8914 106.505 92.0875 102.823 89.4764 99.0085M108.453 90.6106C100.586 95.2779 92.0204 98.6889 83.0726 100.717C78.9323 101.521 74.7199 101.909 70.5001 101.875C66.2803 101.909 62.0679 101.521 57.9276 100.717C48.9798 98.6889 40.4139 95.2779 32.5476 90.6106M52.4345 65.6485C51.009 65.6826 49.6065 66.0103 48.3171 66.6106C47.0277 67.2109 45.88 68.0705 44.9477 69.1341C44.0154 70.1978 43.3191 71.4419 42.9036 72.7866C42.4881 74.1313 42.3626 75.5469 42.5351 76.9422C42.6538 79.4224 43.7243 81.7653 45.5296 83.4966C47.3348 85.2279 49.7401 86.2182 52.2582 86.2668C53.6916 86.2346 55.1026 85.9097 56.4021 85.3127C57.7016 84.7156 58.8614 83.8594 59.8083 82.7981C60.7551 81.7368 61.4684 80.4934 61.9031 79.1466C62.3378 77.7997 62.4845 76.3786 62.3339 74.9731C62.1654 72.48 61.0555 70.1396 59.223 68.4135C57.3905 66.6874 54.9685 65.7009 52.4345 65.6485Z" stroke="url(#paint1_linear_20_591)" stroke-width="3" stroke-linecap="round" stroke-linejoin="round"/>
<path d="M88.5657 65.6486C89.9912 65.6827 91.3937 66.0104 92.6831 66.6107C93.9724 67.211 95.1202 68.0706 96.0525 69.1342C96.9848 70.1978 97.681 71.442 98.0965 72.7867C98.512 74.1314 98.6376 75.5469 98.465 76.9423C98.3463 79.4224 97.2759 81.7654 95.4706 83.4967C93.6653 85.228 91.26 86.2182 88.7419 86.2669C87.3086 86.2347 85.8976 85.9098 84.598 85.3127C83.2985 84.7157 82.1387 83.8595 81.1919 82.7982C80.245 81.7368 79.5317 80.4935 79.097 79.1466C78.6623 77.7998 78.5156 76.3787 78.6663 74.9731C78.8347 72.4801 79.9446 70.1397 81.7771 68.4136C83.6096 66.6875 86.0317 65.701 88.5657 65.6486Z" stroke="url(#paint2_linear_20_591)" stroke-width="3" stroke-linecap="round" stroke-linejoin="round"/>
<defs>
<linearGradient id="paint0_linear_20_591" x1="35.5291" y1="28.9584" x2="35.5291" y2="110.042" gradientUnits="userSpaceOnUse">
<stop stop-color="#6C2DF3"/>
<stop offset="0.984375" stop-color="#DA9A3B"/>
</linearGradient>
<linearGradient id="paint1_linear_20_591" x1="80.1645" y1="28.9293" x2="80.1645" y2="110.042" gradientUnits="userSpaceOnUse">
<stop stop-color="#6C2DF3"/>
<stop offset="0.984375" stop-color="#DA9A3B"/>
</linearGradient>
<linearGradient id="paint2_linear_20_591" x1="88.5745" y1="65.6486" x2="88.5745" y2="86.2669" gradientUnits="userSpaceOnUse">
<stop stop-color="#6C2DF3"/>
<stop offset="0.984375" stop-color="#DA9A3B"/>
</linearGradient>
</defs>
</svg>
