<svg width="120" height="120" viewBox="0 0 120 120" fill="none" xmlns="http://www.w3.org/2000/svg">
<path d="M60 13.125C50.729 13.125 41.6662 15.8742 33.9577 21.0249C26.2491 26.1756 20.241 33.4964 16.6932 42.0617C13.1453 50.627 12.217 60.052 14.0257 69.1449C15.8344 78.2377 20.2988 86.59 26.8544 93.1456C33.41 99.7012 41.7623 104.166 50.8552 105.974C59.948 107.783 69.373 106.855 77.9383 103.307C86.5036 99.759 93.8245 93.7509 98.9752 86.0424C104.126 78.3338 106.875 69.271 106.875 60C106.861 47.5722 101.918 35.6573 93.1306 26.8694C84.3428 18.0816 72.4279 13.1386 60 13.125ZM60 103.125C51.4707 103.125 43.1329 100.596 36.0411 95.8571C28.9492 91.1185 23.4217 84.3833 20.1577 76.5032C16.8937 68.6232 16.0397 59.9522 17.7037 51.5867C19.3676 43.2213 23.4749 35.5372 29.506 29.506C35.5372 23.4749 43.2213 19.3676 51.5868 17.7036C59.9522 16.0396 68.6232 16.8937 76.5032 20.1577C84.3833 23.4217 91.1185 28.9492 95.8572 36.041C100.596 43.1329 103.125 51.4707 103.125 60C103.113 71.4337 98.5651 82.3955 90.4803 90.4803C82.3955 98.5651 71.4337 103.113 60 103.125ZM76.875 52.5C76.8757 49.6731 76.1662 46.8913 74.8116 44.41C73.4571 41.9288 71.5009 39.8276 69.1226 38.2994C66.7444 36.7711 64.0203 35.8648 61.2006 35.6637C58.3808 35.4626 55.5557 35.9731 52.9847 37.1483C50.4136 38.3235 48.179 40.1258 46.486 42.3897C44.793 44.6536 43.6958 47.3065 43.2953 50.1049C42.8947 52.9033 43.2036 55.7575 44.1936 58.4054C45.1835 61.0533 46.8228 63.4101 48.961 65.2594L43.3922 79.2188C43.1617 79.7885 43.0748 80.4062 43.1391 81.0174C43.2034 81.6286 43.417 82.2147 43.761 82.724C44.105 83.2333 44.569 83.6503 45.112 83.9382C45.655 84.226 46.2604 84.3761 46.875 84.375H73.125C73.7396 84.3761 74.3451 84.226 74.8881 83.9382C75.4311 83.6503 75.895 83.2333 76.239 82.724C76.583 82.2147 76.7966 81.6286 76.8609 81.0174C76.9252 80.4062 76.8383 79.7885 76.6078 79.2188L71.0391 65.2406C72.8652 63.6568 74.3308 61.7003 75.3375 59.5026C76.3441 57.305 76.8684 54.9172 76.875 52.5ZM67.0313 65.3531L73.125 80.625H46.875L52.9688 65.3531C53.1232 64.9655 53.1439 64.5374 53.0276 64.1366C52.9112 63.7359 52.6646 63.3854 52.3266 63.1406C50.0766 61.5162 48.3994 59.2204 47.5359 56.5831C46.6725 53.9458 46.6671 51.1026 47.5207 48.4621C48.3743 45.8215 50.0429 43.5195 52.2868 41.8866C54.5306 40.2538 57.2343 39.3742 60.0094 39.3742C62.7845 39.3742 65.4882 40.2538 67.732 41.8866C69.9759 43.5195 71.6445 45.8215 72.4981 48.4621C73.3517 51.1026 73.3463 53.9458 72.4829 56.5831C71.6194 59.2204 69.9422 61.5162 67.6922 63.1406C67.351 63.3828 67.1005 63.7321 66.9807 64.1331C66.861 64.534 66.8788 64.9635 67.0313 65.3531Z" fill="url(#paint0_linear_32_612)"/>
<defs>
<linearGradient id="paint0_linear_32_612" x1="60" y1="13.125" x2="60" y2="106.875" gradientUnits="userSpaceOnUse">
<stop stop-color="#6C2DF3"/>
<stop offset="0.984375" stop-color="#DA9A3B"/>
</linearGradient>
</defs>
</svg>
