<svg xmlns="http://www.w3.org/2000/svg" width="50" height="50" viewBox="0 0 50 50" fill="none">
  <path d="M6.948 44C5.82349 44 4.88477 43.6343 4.13184 42.9028C3.37728 42.1697 3 41.2569 3 40.1644V16.9606C3 15.8681 3.37728 14.9561 4.13184 14.2246C4.88477 13.4915 5.82349 13.125 6.948 13.125H17.6675V9.83562C17.6675 8.74312 18.0448 7.83112 18.7993 7.09962C19.5523 6.36654 20.4902 6 21.613 6H28.3845C29.509 6 30.4486 6.36654 31.2031 7.09962C31.956 7.83112 32.3325 8.74312 32.3325 9.83562V13.125H43.052C44.1765 13.125 45.1152 13.4915 45.8682 14.2246C46.6227 14.9561 47 15.8681 47 16.9606V40.1644C47 41.2569 46.6235 42.1689 45.8706 42.9004C45.116 43.6335 44.1765 44 43.052 44H6.948ZM6.948 41.625H43.0544C43.4293 41.625 43.774 41.473 44.0885 41.169C44.4014 40.8634 44.5579 40.5285 44.5579 40.1644V16.9606C44.5579 16.5965 44.4014 16.2616 44.0885 15.956C43.774 15.652 43.4293 15.5 43.0544 15.5H6.948C6.57316 15.5 6.22848 15.652 5.91394 15.956C5.60103 16.2616 5.44458 16.5965 5.44458 16.9606V40.1644C5.44458 40.5285 5.60103 40.8634 5.91394 41.169C6.22848 41.473 6.57316 41.625 6.948 41.625ZM20.1121 13.125H29.8904V9.83562C29.8904 9.47146 29.7339 9.13658 29.421 8.831C29.1065 8.527 28.7618 8.375 28.387 8.375H21.6155C21.2406 8.375 20.896 8.527 20.5814 8.831C20.2685 9.13658 20.1121 9.47146 20.1121 9.83562V13.125Z" fill="url(#paint0_linear_212_66)"/>
  <path d="M5.44458 41.625V15.5M6.948 44C5.82349 44 4.88477 43.6343 4.13184 42.9028C3.37728 42.1697 3 41.2569 3 40.1644V16.9606C3 15.8681 3.37728 14.9561 4.13184 14.2246C4.88477 13.4915 5.82349 13.125 6.948 13.125H17.6675V9.83562C17.6675 8.74312 18.0448 7.83112 18.7993 7.09962C19.5523 6.36654 20.4902 6 21.613 6H28.3845C29.509 6 30.4486 6.36654 31.2031 7.09962C31.956 7.83112 32.3325 8.74312 32.3325 9.83562V13.125H43.052C44.1765 13.125 45.1152 13.4915 45.8682 14.2246C46.6227 14.9561 47 15.8681 47 16.9606V40.1644C47 41.2569 46.6235 42.1689 45.8706 42.9004C45.116 43.6335 44.1765 44 43.052 44H6.948ZM6.948 41.625H43.0544C43.4293 41.625 43.774 41.473 44.0885 41.169C44.4014 40.8634 44.5579 40.5285 44.5579 40.1644V16.9606C44.5579 16.5965 44.4014 16.2616 44.0885 15.956C43.774 15.652 43.4293 15.5 43.0544 15.5H6.948C6.57316 15.5 6.22848 15.652 5.91394 15.956C5.60103 16.2616 5.44458 16.5965 5.44458 16.9606V40.1644C5.44458 40.5285 5.60103 40.8634 5.91394 41.169C6.22848 41.473 6.57316 41.625 6.948 41.625ZM20.1121 13.125H29.8904V9.83562C29.8904 9.47146 29.7339 9.13658 29.421 8.831C29.1065 8.527 28.7618 8.375 28.387 8.375H21.6155C21.2406 8.375 20.896 8.527 20.5814 8.831C20.2685 9.13658 20.1121 9.47146 20.1121 9.83562V13.125Z" stroke="url(#paint1_linear_212_66)" stroke-width="0.35" stroke-linecap="round"/>
  <defs>
    <linearGradient id="paint0_linear_212_66" x1="25" y1="6" x2="25" y2="44" gradientUnits="userSpaceOnUse">
      <stop stop-color="#6C2DF3"/>
      <stop offset="0.984375" stop-color="#DA9A3B"/>
    </linearGradient>
    <linearGradient id="paint1_linear_212_66" x1="25" y1="6" x2="25" y2="44" gradientUnits="userSpaceOnUse">
      <stop stop-color="#6C2DF3"/>
      <stop offset="0.984375" stop-color="#DA9A3B"/>
    </linearGradient>
  </defs>
</svg>