<svg width="20" height="22" viewBox="0 0 20 22" fill="none" xmlns="http://www.w3.org/2000/svg">
<path opacity="0.5" d="M6.88198 18.94C6.8446 19.1751 6.72456 19.3892 6.54346 19.5437C6.36235 19.6983 6.13205 19.7831 5.89398 19.783H2.06198C1.8391 19.7834 1.61881 19.7352 1.41646 19.6418C1.21411 19.5484 1.03457 19.4119 0.890343 19.242C0.74612 19.0721 0.640684 18.8727 0.581382 18.6579C0.52208 18.443 0.510339 18.2178 0.546978 17.998L3.13698 1.592C3.20816 1.14876 3.43462 0.745269 3.77591 0.453628C4.11719 0.161988 4.55106 0.00120186 4.99998 0H11.214C13.774 0 15.622 0.62 16.706 1.843C17.2217 2.43737 17.5887 3.14593 17.7765 3.91014C17.9643 4.67435 17.9675 5.47228 17.786 6.238C17.765 6.373 17.743 6.508 17.711 6.656C16.888 10.874 14.056 13.113 9.52498 13.113H7.80698L6.88198 18.94Z" fill="#F5F5F5"/>
<path d="M18.437 6.10395C18.2711 5.91842 18.0887 5.74838 17.892 5.59595C17.8707 5.81204 17.8353 6.0265 17.786 6.23795C17.765 6.37295 17.743 6.50795 17.711 6.65595C16.888 10.8739 14.056 13.1129 9.52497 13.1129H7.80697L6.88197 18.9399C6.8446 19.1751 6.72456 19.3891 6.54345 19.5437C6.36234 19.6982 6.13205 19.783 5.89397 19.7829H4.72697L4.64497 20.3029C4.61173 20.5124 4.62428 20.7265 4.68175 20.9306C4.73922 21.1347 4.84024 21.3239 4.97787 21.4852C5.1155 21.6465 5.28645 21.776 5.47896 21.8649C5.67146 21.9537 5.88094 21.9998 6.09297 21.9999H9.32697C9.74592 22.0036 10.1524 21.8576 10.4734 21.5884C10.7943 21.3191 11.0087 20.9441 11.078 20.5309L11.718 16.4999L11.73 16.4449H12.028C16.061 16.4449 18.579 14.4519 19.314 10.6829C19.5381 9.90466 19.5754 9.08449 19.4231 8.28905C19.2707 7.4936 18.9328 6.74432 18.437 6.10395Z" fill="#E4DDEC"/>
</svg>
