<svg xmlns="http://www.w3.org/2000/svg" width="50" height="50" viewBox="0 0 50 50" fill="none">
  <path opacity="0.5" d="M9.84999 33.6187C6.63124 30.3979 5.02082 28.7896 4.4229 26.7C3.8229 24.6104 4.3354 22.3916 5.3604 17.9562L5.94999 15.3979C6.8104 11.6646 7.24165 9.7979 8.51874 8.51873C9.7979 7.24165 11.6646 6.8104 15.3979 5.94998L17.9562 5.35832C22.3937 4.3354 24.6104 3.8229 26.7 4.42082C28.7896 5.02082 30.3979 6.63123 33.6167 9.84998L37.4292 13.6625C43.0354 19.2666 45.8333 22.0666 45.8333 25.5458C45.8333 29.0271 43.0312 31.8271 37.4292 37.4291C31.8271 43.0354 29.0271 45.8333 25.5458 45.8333C22.0667 45.8333 19.2646 43.0312 13.6625 37.4291L9.84999 33.6187Z" stroke="url(#paint0_linear_212_68)" stroke-width="2.25"/>
  <path d="M32.0625 32.0624C33.2812 30.8395 33.4458 29.027 32.4291 28.0083C31.4125 26.9916 29.5979 27.1562 28.377 28.377C27.1583 29.5979 25.3437 29.7624 24.327 28.7458C23.3104 27.7291 23.475 25.9145 24.6958 24.6958M24.6958 24.6958L23.9583 23.9583M24.6958 24.6958C25.3854 24.0041 26.2645 23.6541 27.0833 23.6604M32.7979 32.7979L32.0604 32.0604C31.227 32.8958 30.1125 33.2374 29.1666 33.0416" stroke="url(#paint1_linear_212_68)" stroke-width="2.25" stroke-linecap="round"/>
  <path d="M20.8775 21.4442C22.5047 19.817 22.5047 17.1788 20.8775 15.5516C19.2503 13.9245 16.6122 13.9245 14.985 15.5516C13.3578 17.1788 13.3578 19.817 14.985 21.4442C16.6122 23.0714 19.2503 23.0714 20.8775 21.4442Z" stroke="url(#paint2_linear_212_68)" stroke-width="1.25"/>
  <defs>
    <linearGradient id="paint0_linear_212_68" x1="25.0001" y1="4.16614" x2="25.0001" y2="45.8333" gradientUnits="userSpaceOnUse">
      <stop stop-color="#6C2DF3"/>
      <stop offset="0.984375" stop-color="#DA9A3B"/>
    </linearGradient>
    <linearGradient id="paint1_linear_212_68" x1="28.3782" y1="23.6603" x2="28.3782" y2="33.0954" gradientUnits="userSpaceOnUse">
      <stop stop-color="#6C2DF3"/>
      <stop offset="0.984375" stop-color="#DA9A3B"/>
    </linearGradient>
    <linearGradient id="paint2_linear_212_68" x1="14.985" y1="15.5516" x2="20.8775" y2="21.4442" gradientUnits="userSpaceOnUse">
      <stop stop-color="#6C2DF3"/>
      <stop offset="0.984375" stop-color="#DA9A3B"/>
    </linearGradient>
  </defs>
</svg>