<svg width="22" height="22" viewBox="0 0 22 22" fill="none" xmlns="http://www.w3.org/2000/svg">
<path d="M12.3557 9.05944C10.8652 8.50577 10.0531 8.08135 10.0531 7.40669C10.0531 6.83652 10.5215 6.5111 11.3575 6.5111C12.8856 6.5111 14.4549 7.0996 15.5356 7.62944L16.1461 3.86102C15.2891 3.45219 13.5364 2.7821 11.1136 2.7821C9.39948 2.7821 7.97406 3.23035 6.95565 4.06635C5.8969 4.94085 5.34506 6.20585 5.34506 7.73302C5.34506 10.5041 7.03815 11.6857 9.78815 12.6858C11.5628 13.3164 12.1522 13.7656 12.1522 14.4586C12.1522 15.1296 11.5756 15.5174 10.5371 15.5174C9.25098 15.5174 7.13073 14.8858 5.74198 14.0709L5.12415 17.8814C6.31948 18.5524 8.5204 19.2454 10.8047 19.2454C12.6161 19.2454 14.1267 18.8174 15.1451 18.0024C16.2864 17.1069 16.8776 15.7823 16.8776 14.0709C16.8776 11.2374 15.1461 10.0559 12.3539 9.05852H12.3557V9.05944Z" fill="white"/>
</svg>
