<svg xmlns="http://www.w3.org/2000/svg" width="640" height="264" viewBox="0 0 640 264" fill="none">
  <path d="M165 20.7L121.7 29.9L121.5 172.3C121.5 198.6 141.3 215.6 167.6 215.6C182.2 215.6 192.9 212.9 198.8 209.7V175.9C193.1 178.2 165.1 186.4 165.1 160.2V97H198.8V59.2H165.1L165 20.7ZM254.1 72.3L251.4 59.2H213V212.4H257.3V109.3C267.8 95.5 285.5 98.2 291.2 100V59.2C285.2 57.1 264.5 53.2 254.1 72.3ZM346.4 0L301.8 9.5V45.7L346.4 36.2V0ZM44.9001 104.3C44.9001 97.4 50.7001 94.7 60.0001 94.6C73.5001 94.6 90.7001 98.7 104.2 106V64.2C89.5001 58.4 74.8001 56.1 60.1001 56.1C24.1001 56.1 0.100098 74.9 0.100098 106.3C0.100098 155.5 67.6001 147.5 67.6001 168.7C67.6001 176.9 60.5001 179.6 50.6001 179.6C35.9001 179.6 16.9001 173.5 2.0001 165.4V205.4C18.5001 212.5 35.2001 215.5 50.5001 215.5C87.4001 215.5 112.8 199.7 112.8 167.7C112.8 114.8 44.9001 124.3 44.9001 104.3ZM640 137.6C640 92.1 618 56.2 575.8 56.2C533.6 56.2 507.9 92.1 507.9 137.3C507.9 190.8 538.2 215.5 581.4 215.5C602.6 215.5 618.5 210.7 630.6 204V170.6C618.5 176.7 604.6 180.4 587 180.4C569.7 180.4 554.5 174.3 552.5 153.5H639.4C639.6 151.2 640 141.9 640 137.6ZM552.1 120.8C552.1 100.8 564.4 92.4 575.5 92.4C586.4 92.4 598 100.8 598 120.8H552.1ZM439.2 56.2C421.8 56.2 410.6 64.4 404.4 70.1L402.1 59.1H363V263.9L407.4 254.5L407.5 204.3C413.9 209 423.4 215.5 438.9 215.5C470.7 215.5 499.7 192.3 499.7 135.9C499.8 84.3 470.4 56.2 439.2 56.2ZM428.6 178.7C418.2 178.7 412 174.9 407.7 170.3L407.4 104.3C412 99.2 418.4 95.5 428.6 95.5C444.8 95.5 456 113.7 456 136.9C456.1 160.8 445.1 178.7 428.6 178.7ZM301.9 212.4H346.5V59.2H301.9V212.4Z" fill="#F8F8F8"/>
</svg>