<svg xmlns="http://www.w3.org/2000/svg" width="50" height="50" viewBox="0 0 50 50" fill="none">
  <path d="M28 47.5L27.8357 41.5851H23.75C17.8434 41.5851 12.8256 39.6856 8.6965 35.8865C4.5655 32.0892 2.5 27.4745 2.5 22.0426C2.5 16.6106 4.5655 11.9959 8.6965 8.19861C12.8256 4.39954 17.8434 2.5 23.75 2.5C26.7023 2.5 29.4677 3.00898 32.046 4.02693C34.6224 5.04314 36.8731 6.43544 38.7978 8.20382C40.7207 9.97394 42.2347 12.0437 43.3397 14.4131C44.4466 16.7843 45 19.3274 45 22.0426C45 24.6986 44.5759 27.2496 43.7278 29.6954C42.8778 32.1395 41.7048 34.4508 40.2088 36.6291C38.7091 38.8075 36.9146 40.8138 34.8255 42.6482C32.7364 44.4826 30.4612 46.099 28 47.4974V47.5ZM30.8333 42.4971C34.1861 39.8914 36.9137 36.8402 39.016 33.3434C41.1183 29.8466 42.1686 26.0796 42.1667 22.0426C42.1667 17.3089 40.3836 13.3031 36.8173 10.0252C33.2511 6.74725 28.8953 5.10741 23.75 5.10567C18.6028 5.10567 14.247 6.74551 10.6827 10.0252C7.11833 13.3049 5.33522 17.3107 5.33333 22.0426C5.33333 26.7762 7.11644 30.782 10.6827 34.0599C14.2489 37.3379 18.6047 38.9777 23.75 38.9794H30.8333V42.4971ZM23.8435 35.2559C24.4291 35.2559 24.923 35.0709 25.3253 34.7009C25.7277 34.3292 25.9288 33.8749 25.9288 33.3382C25.9288 32.7997 25.7277 32.3454 25.3253 31.9754C24.9211 31.6036 24.4272 31.4178 23.8435 31.4178C23.2579 31.4178 22.764 31.6036 22.3617 31.9754C21.9574 32.3454 21.7553 32.7997 21.7553 33.3382C21.7553 33.8767 21.9574 34.3309 22.3617 34.7009C22.764 35.0709 23.2579 35.2559 23.8435 35.2559ZM22.6053 27.6343H25.1128C25.1846 26.566 25.4075 25.7209 25.7815 25.099C26.1555 24.4771 27.0433 23.5217 28.4448 22.2328C29.2589 21.4858 29.904 20.7224 30.38 19.9424C30.856 19.1642 31.094 18.2704 31.094 17.2611C31.094 15.3816 30.3885 13.905 28.9775 12.8315C27.5665 11.7562 25.8599 11.2186 23.8577 11.2186C22.1086 11.2186 20.6258 11.6589 19.4093 12.5397C18.191 13.4204 17.2985 14.4705 16.7318 15.6899L19.0637 16.5211C19.4452 15.7499 20.0024 15.0472 20.7353 14.4131C21.4701 13.7808 22.5109 13.4647 23.8577 13.4647C25.4613 13.4647 26.6447 13.8651 27.4078 14.6659C28.1728 15.4684 28.5553 16.3439 28.5553 17.2924C28.5553 18.1644 28.3098 18.9019 27.8187 19.5046C27.3276 20.1074 26.6976 20.7632 25.9288 21.4719C24.5688 22.5732 23.6744 23.5634 23.2457 24.4424C22.8188 25.3179 22.6053 26.3819 22.6053 27.6343Z" fill="url(#paint0_linear_212_82)"/>
  <defs>
    <linearGradient id="paint0_linear_212_82" x1="23.75" y1="2.5" x2="23.75" y2="47.5" gradientUnits="userSpaceOnUse">
      <stop stop-color="#6C2DF3"/>
      <stop offset="0.984375" stop-color="#DA9A3B"/>
    </linearGradient>
  </defs>
</svg>