<svg width="125" height="125" viewBox="0 0 125 125" fill="none" xmlns="http://www.w3.org/2000/svg">
<path d="M107.422 23.4375V37.1094C107.422 37.6274 107.216 38.1242 106.85 38.4904C106.484 38.8567 105.987 39.0625 105.469 39.0625C104.951 39.0625 104.454 38.8567 104.088 38.4904C103.721 38.1242 103.516 37.6274 103.516 37.1094V23.4375C103.516 22.9195 103.31 22.4227 102.944 22.0564C102.577 21.6902 102.081 21.4844 101.562 21.4844H87.8906C87.3726 21.4844 86.8758 21.2786 86.5096 20.9123C86.1433 20.546 85.9375 20.0493 85.9375 19.5312C85.9375 19.0132 86.1433 18.5165 86.5096 18.1502C86.8758 17.7839 87.3726 17.5781 87.8906 17.5781H101.562C103.117 17.5781 104.607 18.1954 105.706 19.2943C106.805 20.3931 107.422 21.8835 107.422 23.4375ZM105.469 85.9375C104.951 85.9375 104.454 86.1433 104.088 86.5096C103.721 86.8758 103.516 87.3726 103.516 87.8906V101.562C103.516 102.081 103.31 102.577 102.944 102.944C102.577 103.31 102.081 103.516 101.562 103.516H87.8906C87.3726 103.516 86.8758 103.721 86.5096 104.088C86.1433 104.454 85.9375 104.951 85.9375 105.469C85.9375 105.987 86.1433 106.484 86.5096 106.85C86.8758 107.216 87.3726 107.422 87.8906 107.422H101.562C103.117 107.422 104.607 106.805 105.706 105.706C106.805 104.607 107.422 103.117 107.422 101.562V87.8906C107.422 87.3726 107.216 86.8758 106.85 86.5096C106.484 86.1433 105.987 85.9375 105.469 85.9375ZM37.1094 103.516H23.4375C22.9195 103.516 22.4227 103.31 22.0564 102.944C21.6902 102.577 21.4844 102.081 21.4844 101.562V87.8906C21.4844 87.3726 21.2786 86.8758 20.9123 86.5096C20.546 86.1433 20.0493 85.9375 19.5312 85.9375C19.0132 85.9375 18.5165 86.1433 18.1502 86.5096C17.7839 86.8758 17.5781 87.3726 17.5781 87.8906V101.562C17.5781 103.117 18.1954 104.607 19.2943 105.706C20.3931 106.805 21.8835 107.422 23.4375 107.422H37.1094C37.6274 107.422 38.1242 107.216 38.4904 106.85C38.8567 106.484 39.0625 105.987 39.0625 105.469C39.0625 104.951 38.8567 104.454 38.4904 104.088C38.1242 103.721 37.6274 103.516 37.1094 103.516ZM19.5312 39.0625C20.0493 39.0625 20.546 38.8567 20.9123 38.4904C21.2786 38.1242 21.4844 37.6274 21.4844 37.1094V23.4375C21.4844 22.9195 21.6902 22.4227 22.0564 22.0564C22.4227 21.6902 22.9195 21.4844 23.4375 21.4844H37.1094C37.6274 21.4844 38.1242 21.2786 38.4904 20.9123C38.8567 20.546 39.0625 20.0493 39.0625 19.5312C39.0625 19.0132 38.8567 18.5165 38.4904 18.1502C38.1242 17.7839 37.6274 17.5781 37.1094 17.5781H23.4375C21.8835 17.5781 20.3931 18.1954 19.2943 19.2943C18.1954 20.3931 17.5781 21.8835 17.5781 23.4375V37.1094C17.5781 37.6274 17.7839 38.1242 18.1502 38.4904C18.5165 38.8567 19.0132 39.0625 19.5312 39.0625ZM85.9375 83.9844C85.6343 83.9844 85.3352 83.9138 85.064 83.7782C84.7928 83.6426 84.5569 83.4457 84.375 83.2031C81.828 79.8071 78.5253 77.0508 74.7285 75.1524C70.9317 73.254 66.745 72.2656 62.5 72.2656C58.255 72.2656 54.0683 73.254 50.2715 75.1524C46.4747 77.0508 43.172 79.8071 40.625 83.2031C40.3142 83.6175 39.8515 83.8915 39.3387 83.9647C38.8259 84.038 38.305 83.9046 37.8906 83.5938C37.4762 83.2829 37.2023 82.8203 37.129 82.3075C37.0557 81.7947 37.1892 81.2738 37.5 80.8594C41.4638 75.5424 47.0245 71.6328 53.3691 69.7021C50.0917 67.7098 47.5558 64.7001 46.1482 61.1322C44.7407 57.5642 44.5388 53.6338 45.5733 49.9404C46.6078 46.247 48.822 42.9934 51.8781 40.6757C54.9342 38.358 58.6645 37.1034 62.5 37.1034C66.3355 37.1034 70.0658 38.358 73.1219 40.6757C76.178 42.9934 78.3922 46.247 79.4267 49.9404C80.4612 53.6338 80.2593 57.5642 78.8518 61.1322C77.4442 64.7001 74.9083 67.7098 71.6309 69.7021C77.9755 71.6328 83.5362 75.5424 87.5 80.8594C87.7176 81.1496 87.8502 81.4946 87.8827 81.8559C87.9153 82.2171 87.8466 82.5803 87.6844 82.9047C87.5222 83.2291 87.2729 83.502 86.9643 83.6927C86.6558 83.8834 86.3002 83.9844 85.9375 83.9844ZM62.5 68.3594C65.204 68.3594 67.8474 67.5575 70.0957 66.0552C72.344 64.553 74.0964 62.4177 75.1312 59.9195C76.166 57.4213 76.4367 54.6723 75.9092 52.0202C75.3816 49.3682 74.0795 46.9321 72.1675 45.02C70.2554 43.108 67.8193 41.8059 65.1672 41.2783C62.5152 40.7508 59.7662 41.0215 57.268 42.0563C54.7698 43.0911 52.6345 44.8435 51.1323 47.0918C49.63 49.3401 48.8281 51.9835 48.8281 54.6875C48.8281 58.3135 50.2685 61.791 52.8325 64.355C55.3965 66.919 58.874 68.3594 62.5 68.3594Z" fill="url(#paint0_linear_32_596)"/>
<defs>
<linearGradient id="paint0_linear_32_596" x1="62.5" y1="17.5781" x2="62.5" y2="107.422" gradientUnits="userSpaceOnUse">
<stop stop-color="#6C2DF3"/>
<stop offset="0.984375" stop-color="#DA9A3B"/>
</linearGradient>
</defs>
</svg>
