<svg xmlns="http://www.w3.org/2000/svg" width="50" height="50" viewBox="0 0 50 50" fill="none">
  <path d="M38.9604 15.3125C38.9604 16.0032 38.6861 16.6655 38.1977 17.1539C37.7093 17.6423 37.0469 17.9167 36.3563 17.9167C35.6656 17.9167 35.0032 17.6423 34.5148 17.1539C34.0265 16.6655 33.7521 16.0032 33.7521 15.3125C33.7521 14.6218 34.0265 13.9595 34.5148 13.4711C35.0032 12.9827 35.6656 12.7083 36.3563 12.7083C37.0469 12.7083 37.7093 12.9827 38.1977 13.4711C38.6861 13.9595 38.9604 14.6218 38.9604 15.3125ZM33.2313 5C29.6128 5.00221 26.1432 6.4406 23.5846 8.99921C21.026 11.5578 19.5876 15.0274 19.5854 18.6458C19.5854 19.4521 19.6896 20.2292 19.8146 20.9458C19.8329 21.036 19.8292 21.1293 19.8038 21.2178C19.7784 21.3063 19.7321 21.3874 19.6688 21.4542L6.67917 34.4458C5.6046 35.5198 5.0006 36.9766 5 38.4958V43.0208C5 45.0333 6.63333 46.6667 8.64583 46.6667H13.8542C14.8211 46.6667 15.7484 46.2826 16.4322 45.5988C17.1159 44.9151 17.5 43.9878 17.5 43.0208V40.4167H21.1479C22.5854 40.4167 23.7521 39.25 23.7521 37.8125V34.1667H27.3979C28.0723 34.1671 28.7206 33.906 29.2063 33.4381C29.692 32.9703 29.9773 32.3323 30.0021 31.6583C31.0354 31.925 32.1271 32.0833 33.2313 32.0833C36.8497 32.0811 40.3193 30.6427 42.8779 28.0841C45.4365 25.5255 46.8749 22.0559 46.8771 18.4375C46.8771 10.8729 40.725 5 33.2313 5ZM22.7104 18.6458C22.7126 15.8562 23.8218 13.1815 25.7943 11.2089C27.7669 9.23636 30.4416 8.12721 33.2313 8.125C39.0688 8.125 43.7521 12.6687 43.7521 18.4375C43.7499 21.2271 42.6407 23.9019 40.6682 25.8744C38.6956 27.847 36.0209 28.9561 33.2313 28.9583C31.8146 28.9583 30.3563 28.6021 29.0542 28.0417C28.8164 27.9395 28.5569 27.898 28.2991 27.921C28.0413 27.9439 27.7932 28.0305 27.5771 28.173C27.3611 28.3156 27.1838 28.5095 27.0612 28.7375C26.9387 28.9655 26.8747 29.2203 26.875 29.4792V31.0417H23.2313C21.7938 31.0417 20.6271 32.2083 20.6271 33.6458V37.2917H16.9813C15.5438 37.2917 14.3771 38.4583 14.3771 39.8958V43.0208C14.3771 43.159 14.3222 43.2914 14.2245 43.3891C14.1269 43.4868 13.9944 43.5417 13.8563 43.5417H8.64792C8.50978 43.5417 8.37731 43.4868 8.27963 43.3891C8.18196 43.2914 8.12708 43.159 8.12708 43.0208V38.4958C8.12708 37.8063 8.40208 37.1417 8.88958 36.6542L21.8813 23.6646C22.2994 23.2428 22.6098 22.7264 22.786 22.1593C22.9623 21.5921 22.9992 20.9908 22.8938 20.4063C22.782 19.8258 22.7206 19.2368 22.7104 18.6458Z" fill="url(#paint0_linear_212_56)"/>
  <defs>
    <linearGradient id="paint0_linear_212_56" x1="25.9385" y1="5" x2="25.9385" y2="46.6667" gradientUnits="userSpaceOnUse">
      <stop stop-color="#6C2DF3"/>
      <stop offset="0.984375" stop-color="#DA9A3B"/>
    </linearGradient>
  </defs>
</svg>