<svg xmlns="http://www.w3.org/2000/svg" width="50" height="50" viewBox="0 0 50 50" fill="none">
  <path d="M18.75 22.8958C19.3025 22.8958 19.8324 22.6763 20.2231 22.2856C20.6138 21.8949 20.8333 21.365 20.8333 20.8125C20.8333 20.2599 20.6138 19.73 20.2231 19.3393C19.8324 18.9486 19.3025 18.7291 18.75 18.7291C18.1975 18.7291 17.6676 18.9486 17.2769 19.3393C16.8862 19.73 16.6667 20.2599 16.6667 20.8125C16.6667 21.365 16.8862 21.8949 17.2769 22.2856C17.6676 22.6763 18.1975 22.8958 18.75 22.8958ZM29.1667 27.0583C29.1667 27.6108 28.9472 28.1407 28.5565 28.5314C28.1658 28.9221 27.6359 29.1416 27.0833 29.1416C26.5308 29.1416 26.0009 28.9221 25.6102 28.5314C25.2195 28.1407 25 27.6108 25 27.0583C25 26.5058 25.2195 25.9759 25.6102 25.5852C26.0009 25.1945 26.5308 24.975 27.0833 24.975C27.6359 24.975 28.1658 25.1945 28.5565 25.5852C28.9472 25.9759 29.1667 26.5058 29.1667 27.0583ZM18.75 35.3875C19.3025 35.3875 19.8324 35.168 20.2231 34.7773C20.6138 34.3866 20.8333 33.8567 20.8333 33.3041C20.8333 32.7516 20.6138 32.2217 20.2231 31.831C19.8324 31.4403 19.3025 31.2208 18.75 31.2208C18.1975 31.2208 17.6676 31.4403 17.2769 31.831C16.8862 32.2217 16.6667 32.7516 16.6667 33.3041C16.6667 33.8567 16.8862 34.3866 17.2769 34.7773C17.6676 35.168 18.1975 35.3875 18.75 35.3875ZM10.4167 9.7083C10.4167 6.58955 12.9792 3.86455 16.2917 4.19163C27.0779 5.26072 37.0708 10.3367 44.2958 18.4166C46.525 20.902 45.8312 24.5916 43.2979 26.427C40.0021 28.8187 35.0896 32.3791 32.2917 34.4125C32.2875 35.3229 32.2875 35.9145 32.2896 36.6875V37.9958C32.2899 38.5287 32.1733 39.0552 31.9482 39.5382C31.723 40.0213 31.3947 40.449 30.9863 40.7915C30.5779 41.1339 30.0995 41.3826 29.5846 41.5201C29.0697 41.6577 28.531 41.6806 28.0062 41.5875C27.5812 43.3083 26.0646 44.7687 23.9562 44.7687C22.4979 44.7687 21.3271 44.0708 20.6042 43.0708L17.8437 45.0645C14.7437 47.302 10.4062 45.0875 10.4083 41.2604L10.4167 9.7083ZM15.9854 7.30205C14.7167 7.17705 13.5396 8.22496 13.5396 9.7083V10.7916C18.7694 11.0112 23.891 12.3513 28.5581 14.7213C33.2252 17.0914 37.3289 20.436 40.5917 24.5291L41.4646 23.8958C42.6687 23.0208 42.8229 21.452 41.9687 20.5C35.2647 13.004 25.9929 8.29322 15.9854 7.30205ZM13.5333 41.2604C13.5331 41.5485 13.6125 41.831 13.7628 42.0768C13.9131 42.3226 14.1284 42.522 14.3849 42.6531C14.6415 42.7842 14.9293 42.8418 15.2165 42.8195C15.5037 42.7973 15.7792 42.6961 16.0125 42.527L20.4458 39.3312C20.6794 39.1632 20.9549 39.0629 21.2418 39.0414C21.5288 39.02 21.8161 39.0782 22.072 39.2096C22.328 39.341 22.5427 39.5406 22.6925 39.7863C22.8423 40.032 22.9213 40.3143 22.9208 40.602C22.9208 41.1645 23.3562 41.6437 23.9562 41.6437C24.0936 41.6451 24.2299 41.6191 24.3571 41.5673C24.4844 41.5155 24.6 41.4389 24.6974 41.342C24.7947 41.245 24.8718 41.1297 24.9241 41.0026C24.9764 40.8756 25.0029 40.7394 25.0021 40.602V37.9937C25.0021 37.5793 25.1667 37.1819 25.4597 36.8889C25.7527 36.5958 26.1502 36.4312 26.5646 36.4312C26.979 36.4312 27.3764 36.5958 27.6694 36.8889C27.9625 37.1819 28.1271 37.5793 28.1271 37.9937C28.1271 38.2854 28.3583 38.5145 28.6437 38.5145C28.7819 38.5145 28.9144 38.4597 29.012 38.362C29.1097 38.2643 29.1646 38.1318 29.1646 37.9937V36.6979C29.1625 35.7187 29.1604 35.0145 29.175 33.5958C29.1769 33.3518 29.236 33.1117 29.3474 32.8946C29.4588 32.6775 29.6195 32.4896 29.8167 32.3458C31.6958 30.9791 35.0167 28.5708 38.0583 26.3666C35.0879 22.6713 31.3652 19.6504 27.1374 17.5046C22.9097 15.3587 18.2737 14.1371 13.5375 13.9208L13.5333 41.2604Z" fill="url(#paint0_linear_212_54)"/>
  <defs>
    <linearGradient id="paint0_linear_212_54" x1="28.0234" y1="4.16492" x2="28.0234" y2="45.9595" gradientUnits="userSpaceOnUse">
      <stop stop-color="#6C2DF3"/>
      <stop offset="0.984375" stop-color="#DA9A3B"/>
    </linearGradient>
  </defs>
</svg>